<svg id="Calque_1" data-name="Calque 1" xmlns="http://www.w3.org/2000/svg" viewBox="0 0 406.54 454.84"><title>Hola Design</title><g id="Calque_2" data-name="Calque 2"><polygon id="H_blanc" data-name="H blanc" points="268.27 142.5 93.27 142.5 93.27 0.5 23.27 0.5 23.27 142.5 23.27 212.5 23.27 356.5 93.27 356.5 93.27 212.5 268.27 212.5 268.27 142.5" style="fill:#fcfcfc;stroke:#fff;stroke-miterlimit:10"/><text id="hola_design_blanc" data-name="hola design blanc" transform="translate(0.5 435.86) scale(0.7)" style="font-size:86px;fill:#fcfafb;stroke:#fff;stroke-miterlimit:10;font-family:ArialNova, Arial Nova">HOLA</text><text transform="translate(162.93 435.86)" style="font-size:86px;fill:#fcfafb;stroke:#fff;stroke-miterlimit:10;font-family:ArialNova, Arial Nova"> </text><text transform="translate(186.58 435.86) scale(0.7)" style="font-size:86px;fill:#fcfafb;stroke:#fff;stroke-miterlimit:10;font-family:ArialNova, Arial Nova;letter-spacing:0.00001622196871479669em">DESIGN</text><path d="M294,78H192.44L191,78V149.4H294c56.33,0,102,47.95,102,107.11h0c0,59.15-45.67,107.1-102,107.1H191V433l1.44,0H294c93.36,0,169-79.47,169-177.5h0C463,157.47,387.32,78,294,78Z" transform="translate(-58.73 -76.5)" style="fill:#e72362"/></g></svg>