<svg id="Calque_1" data-name="Calque 1" xmlns="http://www.w3.org/2000/svg" viewBox="0 0 381.5 357"><title>Hola Design</title><polygon id="H_noir" data-name="H noir" points="245.5 142.5 70.5 142.5 70.5 0.5 0.5 0.5 0.5 142.5 0.5 212.5 0.5 356.5 70.5 356.5 70.5 212.5 245.5 212.5 245.5 142.5" style="stroke:#fff;stroke-miterlimit:10"/><path d="M294,78H192.44L191,78V149.4H294c56.33,0,102,47.95,102,107.11h0c0,59.15-45.67,107.1-102,107.1H191V433l1.44,0H294c93.36,0,169-79.47,169-177.5h0C463,157.47,387.32,78,294,78Z" transform="translate(-81.5 -76.5)" style="fill:#e72362"/></svg>